<?xml version="1.0" encoding="UTF-8" standalone="no"?>
<!-- Created with Inkscape (http://www.inkscape.org/) -->

<svg
   version="1.1"
   id="svg1"
   width="1365.3333"
   height="1365.3333"
   viewBox="0 0 1365.3333 1365.3333"
   sodipodi:docname="RedDragonSociety.svg"
   inkscape:version="1.4 (86a8ad7, 2024-10-11)"
   xmlns:inkscape="http://www.inkscape.org/namespaces/inkscape"
   xmlns:sodipodi="http://sodipodi.sourceforge.net/DTD/sodipodi-0.dtd"
   xmlns="http://www.w3.org/2000/svg"
   xmlns:svg="http://www.w3.org/2000/svg">
  <defs
     id="defs1" />
  <sodipodi:namedview
     id="namedview1"
     pagecolor="#ffffff"
     bordercolor="#000000"
     borderopacity="0.25"
     inkscape:showpageshadow="2"
     inkscape:pageopacity="0.0"
     inkscape:pagecheckerboard="0"
     inkscape:deskcolor="#d1d1d1"
     showguides="false"
     inkscape:zoom="0.56616214"
     inkscape:cx="695.03058"
     inkscape:cy="610.24921"
     inkscape:window-width="1920"
     inkscape:window-height="991"
     inkscape:window-x="-9"
     inkscape:window-y="-9"
     inkscape:window-maximized="1"
     inkscape:current-layer="g1" />
  <g
     inkscape:groupmode="layer"
     inkscape:label="Image"
     id="g1">
    <path
       style="fill:#830e2c;fill-opacity:1;stroke:#000000;stroke-width:3.9;stroke-dasharray:none;stroke-opacity:1"
       d="m 388.17016,1252.2846 c -10.7907,-2.5535 -22.3753,-5.8639 -28.8125,-16.7373 -37.96887,-64.1351 29.4013,-100.4495 41.6519,-105.9889 26.9946,-12.2062 75.4311,1.4395 112.9567,13.445 8.7035,3.1787 26.7409,12.1335 29.6111,8.7728 1.1544,-1.4235 2.0988,-4.8671 2.0988,-7.6524 1.535,-12.4219 1.5971,-16.5549 10.2257,-23.9782 5.5287,-5.3586 6.8098,-4.2107 3.8757,3.4723 -5.1424,13.465 -4.0241,27.947 3.3008,42.7464 7.5598,14.6426 26.3818,28.7936 38.4205,36.5718 4.1702,2.2318 5.7461,-0.9696 3.5932,-7.3 -17.1282,-50.3634 47.4744,-100.7878 86.4736,-57.9187 32.1068,34.3247 -10.9257,58.2944 -15.9843,59.2434 -14.4691,2.7144 -8.9483,-21.2263 -8.5769,-21.9201 1.2427,-2.322 1.5793,-2.2305 5.2308,1.421 7.3354,7.3354 13.4411,3.2854 13.4411,-8.9158 0,-19.8057 -17.6522,-25.8964 -28.6159,-25.7153 -4.6268,0.076 -31.4223,2.0067 -38.1953,36.2127 -0.436,2.202 -5.9358,33.9931 36.1547,51.096 33.8698,13.7625 109.8833,10.4126 149.3053,-27.0831 2.6626,-2.5326 22.8986,-22.4364 24.0178,-43.4085 0,-20.8854 -22.7455,-24.2541 -30.7796,-19.2367 -5.2007,3.2479 -7.5032,-0.3622 -2.7736,-4.3488 11.73,-9.8872 34.2425,-8.3116 45.7565,3.2023 3.1766,3.1767 4.235,6.1108 7.0163,13.2382 10.376,4.3411 35.7255,-19.6971 51.4471,-27.5434 48.7862,-24.6016 110.40194,-25.9702 142.00004,4.4551 10.2301,9.8504 18.5596,15.9499 21.7811,15.9499 14.0635,0 60.9183,-49.2038 75.0965,-86.2748 2.8927,-8.589 -0.6399,-15.4333 -9.5617,-41.5792 -22.1359,-64.87028 -44.8874,-116.88288 -49.7993,-113.84718 -0.6941,0.42898 -0.8834,0.16744 -0.4207,-0.58119 0.4627,-0.74863 -0.3446,-2.43433 -1.794,-3.746 -4.7927,-4.33734 -2.89,-4.63821 29.3318,-4.63821 31.967,0 31.967,0 30.6571,3.44522 -0.7204,1.89487 -0.9129,4.08758 -0.4277,4.87268 0.4876,0.78883 0.2614,1.04374 -0.5055,0.56978 -6.6973,-4.13916 20.4769,119.6376 32.9752,90.46566 3.8551,-12.64223 9.5542,-24.8026 13.9122,-37.57694 5.7205,-15.95189 9.0802,-30.95795 8.1005,-36.18039 -1.7491,-8.52778 -8.6857,-20.6965 -16.4022,-20.88113 0.5188,-0.57527 -0.2608,-2.02147 -1.7326,-3.21376 -2.4838,-2.01226 0.3445,-2.16781 39.4148,-2.16781 35.1738,0 41.7031,0.28935 39.7325,1.76077 -3.4528,2.57826 -1.0212,4.81085 -3.0315,3.56833 -13.3943,2.40532 -21.9476,13.16325 -28.9102,23.39912 -2.2937,3.33385 -6.3849,10.83385 -9.0914,16.66666 -13.1101,26.59685 -23.4268,51.86978 -33.9405,76.59579 -8.668,20.8563 -16.7854,38.2245 -28.8149,57.2826 -32.5015,49.6554 -66.8038,90.262 -121.8073,120.9898 -5.4567,0.3908 -7.3213,0.9238 -8.4084,2.4036 -0.6394,0.8702 -0.9867,0.8411 -1,-0.084 -0.011,-0.7795 1.8331,-3.1795 4.0986,-5.3333 13.0812,-12.4369 10.6922,-30.0356 -6.2134,-45.7699 -6.3755,-5.9339 -23.34234,-13.1993 -27.08944,-14.232 -9.3121,-2.5665 -22.1494,-2.1992 -39.8163,-0.8913 -24.3716,3.8691 -63.5874,21.5189 -83.4363,38.5306 -5.1226,6.4546 -60.0006,40.4097 -40.2583,41.7796 4.3765,0 30.1184,-7.3586 61.8209,-23.532 7.1867,-3.6664 13.691,-1.932 5.9818,1.6941 -6.4696,3.0431 -15.1283,8.3078 -23.2416,12.1961 -50.7997,28.8152 -94.2004,49.045 -150.5331,52.8785 -47.6464,3.4015 -90.232,-15.5474 -92.3487,-16.5045 -3.4918,-1.5789 -31.0849,-14.4279 -39.9966,-17.3414 -20.002,-7.1125 -34.9245,-5.71 -45.0507,4.2341 -4.7293,4.6443 -4.7293,4.6443 -4.4637,0.808 0.7053,-10.1871 12.3027,-20.9011 23.0818,-21.3234 6.4034,-0.2509 7.5641,-2.6099 4.1367,-7.0824 -0.082,-0.1075 -12.3224,-14.0748 -45.7861,-32.8387 -5.6888,-3.1511 -34.603,-14.1169 -47.5727,-16.3557 -54.0012,-10.3037 -84.0353,12.1812 -87.8893,16.3623 -46.68557,63.3079 15.434,101.7344 70.7211,53.4716 0.5026,-0.4388 -0.3071,3 -2.1651,6.6667 -4.7003,9.2754 -6.565,11.6432 -13.9663,17 -3.8417,2.8252 -25.4094,17.6483 -48.2065,12.2536 z M 264.68849,1125.6231 c -2.7567,-0.8925 -7.923,-3.0818 -11.4805,-4.865 -5.99,-3.0024 -26.366,-12.4285 -41.0576,-9.6838 -8.8293,1.6495 -19.6567,7.6079 -23.0216,10.5202 -3.4548,2.9901 -6.5449,5.4365 -6.867,5.4365 -1.9735,0 3.3725,-10.0779 10.9295,-17.5368 22.2585,-21.9697 27.2888,-24.2793 30.6948,-29.6521 6.4301,-10.1432 16.8505,-34.4 17.9773,-49.6043 0.1657,-2.2347 3.75,1.265 5.0771,1.165 1.9994,-0.1506 -5.3102,27.2119 14.486,46.9301 17.4443,17.3756 84.71157,21.7618 82.34837,-20.1277 -0.4596,-8.1477 -14.18347,-20.6859 -28.70707,-30.392 -17.1551,-9.3344 -37.5976,-22.7932 -52.0645,-30.78538 -27.3781,-14.1578 -36.468,-46.8116 -19.7571,-70.9742 10.438,-15.09292 38.961,-32.77279 62.4301,-33.08741 9.8939,-0.13264 8.7908,-0.62729 19.3333,2.03107 19.03527,4.79988 37.13857,6.39779 45.18327,-17.54956 0.8207,-7.09886 4.1252,-2.24613 4.3132,7.53982 0.1465,7.62526 0.939,7.64177 -1.2406,8.32298 -1.8189,0.56848 -4.9943,-0.10974 -6.7896,0.89316 -20.306,11.34306 -12.9319,43.03917 -21.191,61.04814 -0.771,0.4882 -3.2489,-5.32921 -4.64787,-7.10761 -14.4643,-18.62363 -25.2851,-35.2107 -58.013,-20.1679 -6.8004,4.77485 -10.6693,7.82415 -8.6929,18.08801 3.7044,12.058 14.6336,20.3297 49.7452,37.6495 12.4666,6.1496 25.25427,12.7238 28.41697,14.6094 3.1628,1.88558 20.3445,14.61368 26.0935,22.38468 4.8545,6.3645 7.5079,14.7762 7.6501,24.2516 -0.9026,26.5832 -18.93763,51.5352 -41.4883,66.0632 -18.09531,11.6577 -35.75377,19.5789 -56.93247,18.6984 -11.4376,-0.5719 -14.6515,-1.3418 -22.7276,-4.098 z m 340.52557,-53.1323 c -12.8786,-8.3354 -20.1801,-20.287 -26.2494,-33.5488 -13.0324,-25.8169 -18.1382,-106.91262 26.643,-134.22761 11.9244,-8.18562 28.98007,-17.63022 54.0621,-12.73897 12.8663,2.50906 17.85688,8.96746 31.6978,7.738 3.92402,-0.34856 2.604,-2.06847 0.062,18.65097 -0.5399,4.4 -0.8768,8.9 -0.7487,10 0.2547,2.18635 -1.8505,21.87123 -3.1369,29.33333 -0.8045,4.6667 -0.8045,4.6667 -3.4356,-2.3505 -4.1542,-11.07911 -14.4203,-32.25071 -33.4084,-36.81314 -4.0497,-0.78263 -10.1698,-1.01173 -21.4975,4.55996 -13.5706,6.67488 -19.056,17.53346 -22.5574,27.7826 -10.5591,30.0427 0.8501,69.26066 16.7366,90.36616 5.1961,4.5136 14.0684,13.6974 28.4933,15.8412 22.6417,2.5617 43.9521,-16.7679 43.4842,-19.0656 -0.1746,-0.857 0.5211,-1.2363 1.5459,-0.8431 2.0389,0.7824 0.6951,3.1717 -2.5465,13.5137 -2.799,6.7092 -7.0716,12.7023 -12.1447,17.8418 -7.8546,7.2515 -36.2304,28.8538 -76.9998,3.96 z m 184.2556,7.0391 c 0.4803,-0.8256 0.3593,-6.0372 3.5137,-6.1738 27.1323,-1.175 12.1323,-153.15275 10.5872,-165.65838 -0.6914,-5.59567 -5.5407,-10.29991 -6.5004,-11.28297 -4.3781,-3.63358 -0.8164,-3.98974 38.9394,-3.89371 25.5601,0.0617 45.0168,-0.5027 51.6666,-1.49883 17.9162,-2.68384 16.0409,-4.35463 15.7235,14.00884 -0.3442,19.91029 -1.4793,30 -3.375,30 -0.8028,0 -0.5549,-0.18734 -0.7072,-0.75238 -7.7394,-28.71454 -47.2586,-28.83022 -56.6897,-19.39914 -1.8579,1.85783 -2.5513,49.14639 -0.7696,52.48489 1.482,2.7771 11.4029,3.1147 25.1514,0.8557 4.7666,-0.7832 8.1504,-1.34358 10.9021,-1.78735 6.106,-1.57119 8.4733,-4.5357 9.8477,-8.60045 0.1637,-0.84437 0.6374,-0.8965 2.0937,-0.8965 2.5399,0 2.6084,0.5995 1.6817,14.7143 -0.5314,8.0928 -1.0169,17.7863 -1.079,21.5411 -0.088,5.3052 -0.1467,5.98309 -0.9055,7.35578 -0.6121,1.1073 -2.7103,2.7238 -4.7346,-0.83738 -4.5528,-8.00934 -30.4431,-14.55694 -41.8002,-7.3771 -3.4927,2.208 -4.1608,60.44838 -0.7328,63.87638 1.8326,1.8326 37.5597,9.4603 68.1092,-18.6987 6.1155,-5.6371 6.1155,-5.6371 5.5912,10.2752 -1.0582,32.1122 -1.3037,32.5126 -20.1353,32.8255 -52.2419,0.8682 -107.1872,0.3099 -106.3781,-1.081 z m -78.3773,-1.9869 c 0.6362,-1.1888 0.3897,-3.4654 1.1403,-3.6855 7.0367,-2.063 10.6831,-10.6561 12.9728,-17.1047 1.9744,-6.6214 2.3385,-14.657 2.5547,-56.3884 0.4134,-79.8051 -0.7694,-90.09466 -11.6878,-101.6715 -5.4061,-5.73218 -8.746,-5.22732 36.472,-5.5131 27.2981,-0.17253 26.3005,-1.30699 13.0592,14.85125 -5.4604,6.66314 -5.8617,112.77915 -4.0957,132.68305 1.7767,20.0255 9.1947,36.15 15.0243,32.5471 1.0765,-0.6653 2.2357,2.1928 1.1299,3.9636 -2.2315,3.5729 -68.4809,3.8896 -66.5695,0.3182 z m 241.0804,-0.7679 c 10.451,-9.3887 12.8068,-10.5643 16.256,-23.0774 2.7913,-10.0344 3.4222,-137.0941 0.6861,-138.14407 -6.9316,-2.65988 -21.2427,6.33909 -28.8338,15.57082 -4.3314,5.26749 -6.1734,9.18375 -9.7077,15.06427 -2.629,4.3033 -5.0243,8.5033 -5.3227,9.3333 -1.5395,4.2806 -2.0512,-2.8102 -2.4413,-33.8243 -0.4864,-38.67019 -1.6987,-35.41926 11.5335,-30.92897 14.2115,4.82263 116.88534,2.63531 120.09524,-2.55846 3.8307,-6.1983 4.5714,-0.80865 4.5714,33.26521 0,39.75452 -0.01,39.78532 -7.2314,25.22162 -11.6301,-23.4511 -20.4918,-30.93682 -35.6029,-30.07482 -7.1656,0.40875 -7.1656,0.40875 -6.9005,58.29812 0.3494,76.25578 1.4501,82.55508 16.9948,97.25658 7.247,6.854 7.247,6.854 -32.50984,6.854 -35.7343,0 -39.9421,-0.2283 -41.5869,-2.2559 z M 118.26749,891.98188 c -0.762,-1.98574 6.5525,-22.12362 44.0377,-49.08551 3.4744,-2.49903 18.5778,-20.5334 19.5301,-23.9444 0.4996,-1.78983 0.9683,-30.72317 1.0414,-64.2963 0.1441,-66.16568 -0.26,-70.27473 -7.9755,-81.11019 -3.7143,-5.21625 -3.5992,-5.36055 8.8007,-11.03052 23.9605,-10.9562 58.2237,-34.95999 58.3491,-35.43958 1.3354,-5.10647 -57.1099,-27.62926 -104.3171,-5.27913 -8.0742,3.82273 -13.1673,8.69616 -18.8834,16.17499 -3.8502,5.03748 -5.3362,9.14309 -7.7238,15.7265 -6.6936,18.20217 -0.1331,34.47443 17.0961,42.40415 8.721,4.01386 6.9063,6.92918 -4.3133,6.92918 -64.212198,0 -51.269998,-125.61401 62.4334,-130.28554 34.5599,-1.58235 67.6035,9.06396 95.7722,28.15618 21.627,13.49356 39.275,26.36092 49.9497,35.58734 21.29897,18.40924 35.79727,39.52435 43.55157,63.37652 11.3987,32.91245 9.7156,66.2268 -4.8547,96.09043 -24.0889,49.37323 -85.98557,80.08924 -95.62277,84.34244 -27.1496,14.29574 -39.86,-0.97161 -64.796,-9.99485 -12.9688,-3.50745 -36.623,-1.51653 -49.4801,-1.19662 -9.2841,0.23101 -27.4814,7.38376 -36.7247,18.85312 -2.2145,2.78903 -4.2602,5.30684 -4.546,5.59514 -0.2859,0.28829 -0.8819,-0.41972 -1.3246,-1.57335 z m 180.3233,-47.76444 c 14.9509,-7.73112 46.11527,-31.66112 40.1233,-95.18638 -7.6579,-81.18642 -76.288,-112.7782 -79.7545,-110.63576 -1.6082,0.99392 -1.6439,178.51344 -0.039,192.36814 2.2358,19.29723 18.0185,24.64994 39.6698,13.454 z m -46.3608,-106.79397 c 0.3144,-93.93109 -1.381,-102.19838 -3.429,-103.88897 -3.5317,-2.48273 -7.7232,4.9302 -9.3834,7.91314 -7.5201,13.85493 -8.3176,22.18642 -8.4477,88.25009 -0.077,39.30843 -1.0283,61.04393 -1.6075,64.66666 -0.8793,5.49998 0.1515,2.90066 -6.7848,8.32071 -1.5957,1.43005 -8.0013,5.91134 -14.2347,9.95844 -11.1893,7.26486 -32.3099,20.98603 -11.9633,21.03377 5.8852,0.0138 9.6998,-0.67758 11.7809,-2.13522 4.4028,-3.08386 15.4665,-3.65752 27.2993,3.27819 25.6121,15.01236 16.704,-79.80127 16.7702,-97.39681 z m 296.57117,137.4998 c -23.4922,-3.9355 -36.2727,-23.88932 -45.167,-44.14307 -8.2724,-16.88971 -13.6727,-67.4678 -39.2336,-69.08247 -11.2333,0 -11.1746,-0.16589 -10.4185,29.44529 0.8207,32.14068 2.4526,37.71293 14.5267,49.60238 4.3088,4.2429 7.8341,7.99289 7.8341,8.33334 0,0.34044 -18.6734,0.61898 -41.4966,0.61898 -34.5634,0 -41.2484,-0.29895 -40.0115,-1.78934 0.8167,-0.98414 1.0402,-2.28034 0.4966,-2.88043 -0.5437,-0.6001 -0.2834,-0.68728 0.5783,-0.19374 5.1604,2.9557 15.8824,-15.6931 17.8626,-31.06854 2.52,-19.56651 0.9909,-129.22745 -1.9902,-142.7346 -1.0314,-4.67302 -9.8378,-23.20877 -15.1058,-24.59482 -10.6661,-2.8063 10.111,-4.72982 51,-4.72151 41.2035,-0.35168 97.2182,5.98766 100.6666,57.3769 0,46.81639 -55.9212,49.5727 -39.9849,60.6166 28.8812,20.01475 25.1107,62.33409 45.3523,85.10797 5.8627,6.59616 21.4756,20.95866 30.8418,18.98826 6.211,-1.30662 5.6537,2.88432 1.7047,4.92644 -9.8375,5.08714 -27.6707,8.03547 -37.4556,6.19241 z m -73.5679,-126.08215 c 6.8659,-2.31603 21.494,-14.71647 22.0089,-19.14339 0.128,-1.1 1.144,-6.5 2.2579,-12 4.0182,-29.37411 -6.602,-55.02313 -34.9445,-56.42994 -10.2127,-0.23672 -10.2127,-0.23672 -10.5639,44.9128 1.4639,34.9019 -3.8789,51.13424 21.2416,42.66053 z m 665.14204,-30.45664 c -12.823,-7.93976 -7.7228,88.29229 1.1698,107.90457 3.657,8.06527 17.9467,24.4035 19.5567,22.79345 0.4222,-0.42216 0.5468,1.64349 0.5468,2.49909 0,2.01334 -80.3709,3.5767 -80.5516,1.22107 -0.1403,-1.82751 -1.5326,-6.75738 2.837,-8.95523 39.58,-19.90823 31.3507,-100.76726 26.894,-155.29663 -4.5129,-35.95551 -25.9552,-38.00454 -25.6035,-38.57359 0.4253,-0.68814 0.6943,-2.97977 0.1557,-4.48539 -1.7468,-4.88274 3.0641,-3.48886 28.296,-3.67107 25.7833,-0.18619 26.8784,0.6924 33.0504,8.62329 11.1347,14.30796 44.3426,65.24339 70.0819,102.43151 5.4886,7.92985 9.8356,11.82538 11.0334,9.88737 2.9979,-15.73583 10.8759,-110.06119 -22.7754,-110.75485 -0.9768,-0.0201 -1.8206,-5.56751 -0.7169,-6.74836 3.0892,-3.30501 17.6695,-4.92766 51.9932,-5.78636 31.3334,-0.78388 31.3334,-0.78388 24.711,3.72025 -24.3494,16.56128 -28.2038,40.75966 -26.2179,155.17079 0.9079,52.30693 0.6562,47.98081 0.6562,47.98081 -0.5153,0.58789 -22.585,0.48045 -22.8628,0.0573 -42.4642,-64.67583 -46.1049,-86.10013 -92.254,-128.01805 z m -283.55664,129.1377 c -11.78,-5.50888 -11.78,-5.50888 -19.1279,-2.20636 -12.3428,5.54745 -17.5065,7.08222 -27.2876,8.11044 -34.4838,3.2057 -61.7878,-13.2663 -75.9046,-43.32469 -32.1342,-63.62349 -3.2859,-157.42164 52.511,-170.7356 39.1792,-9.34885 49.8003,11.47231 66.1842,11.92046 1.5679,0.0429 5.576,-1.79703 8.9069,-4.08869 10.1483,-6.98227 10.482,-6.32203 5.7376,11.35259 -6.3927,23.81492 -8.9132,54.58664 -16.414,50.48074 -4.5164,-2.47227 -19.7522,-55.88006 -54.7909,-41.26576 -28.5935,11.92599 -33.7438,71.72534 -30.5089,88.59909 4.1922,34.09388 12.8835,69.87324 54.9941,67.38667 9.179,-1.37647 10.4709,-5.23728 10.5031,-31.38668 0.2622,-12.19278 -7.1516,-43.25314 -29.3101,-48.75252 -1.1104,-0.27557 -4.4241,-5.06166 -0.7528,-7.50789 2.7871,-1.85714 8.5866,2.31847 58.4977,1.06582 28.3803,-0.71227 28.3803,-0.71227 24.2749,2.74222 -9.5795,8.0606 -9.6741,8.68271 -9.8398,64.68929 -0.1381,46.71153 -0.3147,50.32977 -2.4839,50.90025 -1.4884,0.39144 -5.898,-3.63448 -15.189,-7.97938 z m 92.6666,-1.92082 c -14.7125,-10.47373 -23.7529,-14.6881 -34.499,-34.73608 -12.6191,-22.76261 -27.2987,-83.4623 7.7901,-135.67393 15.4851,-23.89768 45.0766,-33.11456 46.2332,-33.46748 37.01374,-11.51182 80.96874,6.79969 100.66594,44.21761 33.9795,62.73649 0.4158,119.05759 -12.6215,134.85104 -32.9074,40.25083 -80.35014,38.54875 -107.56874,24.80884 z m 53.26724,-16.14442 c 14.5004,-3.9633 23.6574,-19.66229 28.7847,-32.74887 10.4763,-31.91757 8.414,-77.13612 -4.7202,-103.49827 -6.9347,-12.35741 -17.3898,-24.00059 -30.80324,-25.98524 -5.6389,-1.01971 -30.3159,-3.4531 -40.4252,29.38816 -9.9105,28.08942 -11.3055,68.23467 -3.3391,96.09187 1.1637,4.06907 14.0753,45.91657 50.50304,36.75235 z m -438.48404,16.3456 c -7.8906,-4.83068 -5.6731,-9.33633 -2.2357,-17.51477 4.9655,-11.60549 12.9929,-35.7798 24.99,-75.25671 3.7886,-12.46666 9.1418,-29.86666 11.896,-38.66666 14.4474,-46.16135 13.6928,-41.61844 8.3199,-50.09061 -4.0482,-6.38338 -15.7784,-18.56973 -19.2293,-16.93048 -2.2143,1.05181 -2.7228,-3.50603 -4.8597,-2.28527 -0.8336,0.47617 -1.7056,-0.74682 -1.1745,-1.33436 2.5672,-2.8402 75.0231,-2.25042 79.7142,0.64887 1.1873,0.73376 2.1252,5.37766 2.7375,13.55402 1.244,15.65208 5.2262,28.05726 9.9396,42.74241 29.7871,105.64066 12.0016,66.5247 27.2875,103.44902 6.3088,15.46867 26.2161,26.30882 32.1425,41.55914 1.3587,3.49629 7.2131,6.61866 -41.7869,6.65295 -26.95,0.0189 -49,-0.23755 -49,-0.56981 0,-0.33226 1.9201,-4.71169 4.4576,-5.91584 13.3736,-6.34619 26.3052,-45.08397 7.0602,-55.48005 -3.4552,-1.86649 -49.6043,-2.9088 -51.571,0.76595 -6.0979,11.39403 -9.6739,34.74744 -6.2329,40.70401 2.7614,4.7802 8.3461,10.77797 11.7243,12.59161 5.1171,2.74718 -2.6536,4.95907 -18.6334,5.78223 -16.6198,0.85613 -15.5602,1.65238 -25.5459,-4.40565 z m 81.4077,-86.73547 c 0,-2.03541 -0.9205,-6.30989 -2.0457,-9.49885 -1.1251,-3.18896 -4.731,-16.23126 -8.0131,-28.9829 -7.9673,-30.95445 -7.6018,-30.96558 -14.8413,-9.387 -3.5473,10.57341 -5.9765,20.09115 -9.0802,30.44095 -6.7897,22.6415 -8.1645,21.55316 15.5896,21.31383 18.3907,-0.1853 18.3907,-0.1853 18.3907,-3.88603 z M 505.47766,623.02855 c -16.4165,-4.73989 -21.3745,-10.17466 -29.8655,-18.72626 -21.2442,-20.59069 -26.7525,-66.00636 -49.344,-83.23783 -6.0087,-4.58304 -13.2812,-7.04045 -23.8604,-8.06254 -15.2804,-1.47629 -14.384,-3.28952 -13.7551,27.82272 0.7832,38.74152 5.0952,49.12999 26.2589,63.26254 7.8688,5.25462 7.8688,5.25462 0.1685,6.05947 -4.2352,0.44267 -11.2337,0.22476 -15.5521,-0.48424 -15.454,-2.53724 -36.2652,-3.92848 -61.85167,-4.13486 -30.7252,-0.24782 -32.5555,-0.60496 -26.3813,-5.14757 45.64827,-33.58485 24.8535,-201.74597 1.4248,-192.75552 -0.8503,-1.76844 -3.8661,-0.93221 -3.5414,-2.5525 0.7469,-1.94638 7.6829,-3.84399 22.0643,-6.03652 12.88907,-1.96504 32.25307,-6.05552 43.74007,-9.23976 5.4853,-1.52053 11.2328,-3.60678 13.0211,-4.07299 2.3508,-0.61285 3.2097,0.39482 9.7133,1.59881 4.8554,0.71262 14.3502,-7.42687 18.0928,-10.84735 33.6262,-30.73246 112.5329,12.57784 112.5329,61.76706 -1.3134,28.07586 -24.4362,44.28757 -59.0774,64.95994 -1.3719,0.81868 27.604,93.63863 87.9019,97.79323 13.6783,0.0413 13.8848,0.37823 4.7617,7.76871 -15.7493,12.75831 -39.1083,18.6612 -56.4514,14.26546 z m -81.1428,-125.42238 c 31.8458,-5.16662 47.2354,-31.40245 41.1712,-57.90842 -7.498,-29.33217 -40.9372,-43.32419 -70.4427,-46 -2.7161,0 -3.9987,0.82291 -4.6756,3 -1.1804,3.79661 -2.6689,97.45054 -1.5934,100.25344 0.9712,2.53072 21.632,2.91148 35.5405,0.65498 z m 278.6747,118.43447 c -11.3667,-0.54473 -43.9161,-1.14473 -72.332,-1.33333 -47.0756,-0.31244 -55.7141,-0.87396 -49.5914,-3.22347 24.6952,-19.35511 18.5529,-78.80484 18.4786,-114.91771 -0.2425,-68.87055 -0.5116,-71.80349 -8.0534,-87.75663 -3.551,-7.51144 -17.4407,-21.53326 -24.3676,-24.59941 -6.4303,-2.8463 -5.2351,-3.1777 11.5316,-3.19757 18.568,-0.022 82.0037,-1.86462 91.9917,-2.67208 3.8449,-0.31083 22.4449,-0.60456 41.3333,-0.65273 44.3974,-0.11321 70.4698,-2.44019 82.1037,-7.32781 2.1187,-0.89011 2.3622,-0.44549 1.9125,3.49227 0.097,4.03448 -2.0958,3.77856 -4.4515,5.51225 -16.3284,12.63737 -36.9619,38.80284 -48.9588,60.97319 -0.6875,1.92846 -5.1411,1.13472 -7.43,-5.14279 -4.5125,-12.88496 -10.9829,-17.63484 -21.8065,-24.32008 -10.3589,-6.39823 -60.3731,-10.8043 -62.9122,-6.69582 -1.176,1.90273 -1.7424,69.00221 -0.5922,70.15239 0.4696,0.46963 21.3139,1.21412 46.3205,1.65442 37.0522,0.65238 45.2009,1.12084 44.0304,2.53121 -1.2427,2.73031 -1.3957,5.71391 -0.8446,8.39224 -3.5988,0.10684 -8.0516,5.64305 -9.8161,9.20661 -4.2398,8.35902 -7.6666,20.89525 -7.3938,23.53888 1.1439,11.085 -4.6131,10.91745 -7.4455,9.35342 -6.4634,-3.56909 -1.5514,-18.62644 -13.7067,-22.06016 -12.5567,-1.99769 -46.7162,-3.86977 -47.4004,-3.89643 -4.9836,-0.0492 -5.2672,2.18047 -5.2462,41.24624 0.012,21.67351 0.5652,38.92795 1.2854,40.06667 2.6984,4.26625 61.2146,1.70486 81.9958,-3.58915 19.2707,-4.88698 47.3024,-18.5717 46.7751,-34.76296 -0.039,-1.20726 8.4114,-4.48784 6.5316,0.45531 -5.6766,16.52323 -10.2105,62.05291 -29.9979,69.19539 -9.4861,4.20148 -35.235,1.15577 -51.9438,0.37764 z m 141.3333,-3.05192 c -4.3983,0.83533 -28.026,-1.81041 -34.4345,-2.03445 -11.0981,-0.38798 -11.1011,-0.29021 -1.8448,-9.25749 5.74,-5.47994 13.0715,-14.16554 13.687,-25.99904 0.5363,-10.31136 3.3093,-144.14033 1.3712,-156.57226 -1.7717,-11.36378 -7.6616,-23.58472 -14.0848,-29.22436 -4.468,-3.92295 -7.1138,-8.53639 -4.2698,-7.44502 8.1544,3.12907 122.4364,-27.11548 179.8757,12.95463 21.55364,15.57687 42.46724,36.45661 42.50354,87.68373 -0.051,21.09723 -5.774,41.60409 -15.2825,60.3517 -5.6701,10.57286 -14.32654,22.67102 -18.16014,27.25241 -21.5036,25.69842 -49.3175,36.87789 -75.6015,40.85004 -18.5375,2.92318 -46.5927,3.47094 -73.7598,1.44011 z m 75.0986,-29.23581 c 18.043,-4.81592 58.7806,-24.16001 55.1443,-100.44442 -2.1996,-46.14826 -22.8005,-89.56521 -95.5762,-81.09958 -5.2275,0.60809 -6.9578,2.89812 -7.411,33.1329 -1.6526,110.27533 -1.8963,148.58495 -0.9538,149.95122 2.3588,3.41918 33.9522,2.42203 48.7967,-1.54012 z m 75.1382,18.97481 c 0.8052,-2.06837 -0.072,-5.39549 1.8532,-8.30767 9.20994,-10.30758 18.27004,-20.77494 27.93664,-30.72231 32.2851,-32.96991 48.0818,-58.70038 56.7092,-90.25148 7.497,-27.41735 8.2369,-56.5602 2.0583,-81.06685 -3.2835,-13.02346 0.5712,-8.87059 9.4321,10.16158 8.8506,19.01019 10.2396,18.18131 14.4017,-8.59422 3.7802,-24.31905 3.1902,-42.59096 -2.053,-63.58235 -3.4613,-12.88925 -7.5838,-31.96768 -28.1539,-43.98008 -43.2553,-25.26001 -108.70664,-6.77668 -101.76174,34.89141 2.8812,17.28669 24.0594,29.51285 33.96454,19.60772 1.1236,-1.12357 2.0429,-1.43054 2.0429,-0.68214 0,1.95779 -7.856,7.35769 -13.42804,9.22993 -3.7369,1.2556 -28.4342,8.28501 -39.2401,-21.06684 -2.7252,-7.22123 -6.2538,-40.33339 35.1275,-55.9183 11.91434,-4.69618 33.19054,-7.98728 52.03714,-8.04933 12.6097,0.30327 8.8188,-1.24109 3.7893,-7.4298 -15.2394,-23.25682 -61.32384,-21.12098 -67.30704,-21.33121 -54.6352,-1.18095 -63.4313,4.7141 -82.9788,12.39299 -12.2647,4.96688 -32.6592,10.45029 -37.1055,29.76729 -0.8351,3.62784 -3.5942,0.34921 -3.7661,-4.18379 -0.058,-1.53232 -2.3024,-42.63803 -75.9482,-43.13083 -13.3908,-0.0896 -16.1209,0.22961 -15.3333,-1.62113 9.7118,-22.82097 91.6914,-2.09075 95.5394,13.24057 1.8214,7.25657 7.0218,2.09925 15.0794,-6.51288 8.7462,-9.34812 10.8907,-11.0634 10.3917,-8.31171 -0.8972,4.94813 4.8357,5.85186 15.5733,2.45494 8.238,-2.60616 25.7677,-5.81654 39.5693,-7.24666 45.1724,-4.68082 71.03424,-3.42169 95.10914,4.63033 31.1978,8.1695 52.1383,31.03165 66.1063,56.14672 20.158,36.24478 27.5237,93.29781 6.6255,147.1028 -22.0065,56.65846 -39.1675,84.5265 -39.6453,91.48247 -0.7793,11.34496 17.1948,-1.19868 33.1376,1.94374 45.7771,7.6561 43.9341,33.3179 43.6907,35.51209 -0.4206,3.7922 -0.6455,4.02926 -1.6394,1.72835 -6.8313,-12.66867 -23.4241,-23.38001 -38.319,-24.56332 -45.236,-0.61502 -108.54424,64.97815 -109.48904,68.4049 0.468,0.82046 -0.4596,1.20308 -1.0597,0.65944 -0.6001,-0.54363 -1.0044,-0.53626 -1.9002,0.20719 -1.242,1.03078 -1.4905,0.31568 -1.0465,-3.01156 z m 207.09654,0.4585 c 0,-0.648 2.4,-3.34644 5.3333,-5.99653 2.9333,-2.65009 5.3333,-5.5999 5.3333,-6.55515 0,-0.95524 0.5263,-2.3068 1.1695,-3.00347 4.183,-4.53081 7.273,-24.00001 5.2514,-33.08839 -5.4134,-16.05017 -13.2724,-29.04648 -24.3034,-37.25494 -3.1298,-2.32898 -38.8483,-27.77931 -84.1175,-11.37489 -18.7638,6.79998 -28.2628,10.91585 -27.2404,11.93829 0.4818,0.48176 -0.027,1.17951 -0.4904,1.17951 -0.4631,0 -1.523,-1.27241 -2.3553,-2.82757 -0.8323,-1.55517 -0.9929,-1.70764 -0.2407,-2.0411 4.3661,-1.93558 12.9772,-9.28411 16.3263,-11.79758 80.018,-61.57234 182.4262,24.34772 122.7435,89.09564 -7.4132,11.73663 -2.3653,3.43987 -8.743,7.57059 -2.6683,2.21458 -0.8619,-0.6094 -4.8415,3.54402 -1.6863,2.03189 -3.8251,2.37362 -3.8251,0.61116 z M 220.83749,461.64202 c -20.7214,-19.95655 -23.124,-60.48757 -5.1869,-87.50281 11.6387,-25.24384 63.236,-52.90065 114.6923,-41.93634 18.72027,3.98891 36.15537,8.43509 48.17387,12.28495 32.2697,10.33691 36.9868,5.37054 44.4021,-9.26289 4.9098,-9.68905 11.8515,-135.72058 6.8738,-141.60104 -2.0869,-2.46544 -17.6874,-5.08687 -17.2238,-2.89421 0.1125,0.53245 -0.5588,2.76808 -1.4918,4.96808 -2.9537,6.96455 -3.2873,17.19507 -2.1737,66.66667 0.6836,30.37042 1.168,48.58433 3.6218,51.03818 1.8952,1.89514 2.7083,3.40806 0.4057,2.96181 -11.9618,-2.31824 -21.1894,14.741 -29.6589,9.78626 -0.9814,-0.98141 -1.7177,-3.20657 -5.1442,-5.21466 -3.6453,-2.1363 -8.2743,-4.045 -7.1093,-4.28916 4.603,-0.96473 7.1042,-5.98865 11.4477,-22.91801 5.5529,-21.64356 20.8229,-82.43275 2.2513,-109.95974 -64.35397,-24.65301 -113.41507,1.33873 -72.54267,50.66828 4.7715,5.75882 10.3437,8.34173 3.1291,7.09916 -21.2574,-3.66115 -71.7807,-85.5817 83.28497,-83.05435 23.041,0.37554 33.2769,1.16932 40.8254,-4.11788 4.0119,-2.81002 5.391,-2.49032 4.314,1.0001 -5.0654,16.41683 -5.2142,16.29399 24.6146,20.32338 13.5667,1.83264 26.2093,3.59812 28.0948,3.9233 4.1869,0.7221 6.7139,-4.80707 6.4247,-14.05757 -1.3135,-42.01446 65.3449,-71.404907 82.8138,-36.51357 14.6938,29.34847 -11.2755,60.70473 -56.2865,67.96241 -6.5712,1.05956 -6.4015,0.49958 -6.5491,21.60045 -0.1737,24.82109 -0.4628,23.11644 3.8356,22.61579 12.1953,-1.42039 29.5161,-11.32098 29.9983,-17.72313 0.4727,-6.27478 9.7862,-4.05591 17.2695,4.1143 14.9589,12.50713 15.6033,23.1513 12.2634,48.08797 -4.8447,26.18505 1.6623,62.34078 11.7319,65.1866 3.0703,0.8677 3.0703,0.8677 -0.5475,3.84055 -6.0166,4.94405 -21.5775,12.68766 -23.7156,11.80165 -8.5366,-3.53762 -10.6963,-7.12969 -13.3247,-22.16214 -0.8975,-5.13333 -2.7541,-13.83333 -4.1257,-19.33333 -1.3715,-5.5 -2.6766,-15.05678 -2.9002,-21.23728 -0.697,-19.27361 -2.2781,-8.70396 -18.7729,-9.22669 -26.4728,-0.83894 -17.7352,33.44718 -7.7935,50.82028 2.5461,2.94286 -1.9837,8.29711 -10.8986,12.88222 -5.624,2.8925 -5.624,2.8925 -16.557,-2.50635 -18.545,-8.44415 -6.748,-3.34484 -16.1008,-7.46018 -5.9065,-2.50259 -9.2314,-1.5818 -3.4755,-3.92729 12.3244,-5.02214 15.151,-19.48759 12.6383,-64.67804 -0.061,-1.1 -0.1027,-14 -0.092,-28.66667 0.02,-28.78687 -0.7932,-39.25335 -3.1173,-40.09861 -1.7065,-0.62062 -36.1037,-5.9456 -44.3428,-6.86463 -7.1154,-0.79369 -6.2608,-3.6304 -6.8157,75.70208 -0.3739,53.45851 -9.8886,76.45912 -44.412,111.98085 0,3.95759 -41.0197,-16.5236 -57.06307,-18.85331 -18.8204,-4.21736 -38.3021,-5.81184 -57.5129,-2.56943 -20.5362,4.8396 -39.7473,16.45233 -50.0944,40.787 -13.8135,31.24252 6.9067,66.22804 39.3645,66.46604 13.3833,0.0982 21.9243,-5.42442 24.2948,-7.17705 2.188,-1.6176 4.3309,-2.58827 4.7622,-2.15702 -1.6853,0.64181 -2.4666,4.17803 -4.3682,6.15601 -35.8472,26.53157 -60.6737,8.27347 -72.1312,-2.76099 z M 539.67616,273.22331 c 8.3703,-3.12394 15.3056,-8.52001 15.3268,-11.9251 -2.0324,-9.96468 -12.8701,-14.85977 -22.004,-10.81721 -10.6391,4.56242 -11.6674,21.45971 -12.6561,25.08563 0,2.72071 8.5374,1.68593 19.3333,-2.34332 z m 17.9877,-92.52055 c 14.8903,-7.06209 28.0709,-23.31776 24.1742,-36.32404 -0.5813,-1.94018 -4.6973,-22.26562 -26.2128,-22.46569 -22.9039,0.18999 -37.8037,16.28188 -42.2178,31.93811 -2.3404,7.88114 -2.0364,17.48173 4.2098,25.69153 3.4156,4.48931 16.507,12.32432 40.0466,1.16009 z m 14.679,177.66166 c 0,-0.36667 0.3,-0.66667 0.6667,-0.66667 0.3666,0 0.6666,0.3 0.6666,0.66667 0,0.36667 -0.3,0.66667 -0.6666,0.66667 -0.3667,0 -0.6667,-0.3 -0.6667,-0.66667 z m 58.7605,-14.7079 c -10.9947,-10.63732 -15.1824,-39.00567 -18.0938,-61.48257 -4.5727,-47.416 20.8919,-57.0974 35.8748,-61.99019 8.3277,-2.81143 23.9376,-3.67155 28.2493,-1.55657 11.3245,1.73394 20.6896,5.84424 32.7523,5.52514 9.4012,-0.59863 24.5419,-6.82627 22.9314,-9.4321 -0.531,-0.85925 -0.2596,-1.047 0.677,-0.46821 7.1786,4.43667 -40.0935,36.40312 -54.8182,44.7421 -3.1166,1.71641 -5.2521,2.6624 -4.7455,2.10222 0.5065,-0.56019 2.26663,-14.77514 0.47673,-16.7055 -4.9803,-5.69899 -13.29634,-5.4538 -19.86974,-4.24359 -8.6129,2.37815 -24.93112,22.64659 -12.52488,32.39288 12.18648,9.57364 34.4722,15.27663 47.25939,8.86264 3.7652,-2.3373 8.5566,-10.31121 11.404,3.21101 1.6294,7.7364 -23.0842,14.05469 -35.6666,9.11856 -14.6015,-5.72817 -22,-4.28232 -22,4.29933 1.3928,15.26086 11.8644,31.89953 27.7339,35.11538 15.2956,1.01784 27.6207,-7.3738 37.7884,-14.25053 4.2754,-3.04436 5.0763,-0.0501 1.3007,4.61279 -4.5796,5.65588 -1.044,3.28085 -11.0679,11.54569 -30.7303,25.80226 -57.7587,18.18217 -67.6613,8.60152 z m -201.982,751.46398 c -14.7125,-10.4737 -16.0952,-14.1074 -26.9924,-34.0737 -12.4685,-22.8454 -27.2987,-83.46228 7.7901,-135.67391 15.4851,-23.89768 39.7556,-30.03007 40.9122,-30.38299 37.0137,-11.51182 71.9138,3.98956 91.611,41.40748 25.1481,63.61962 0.4158,119.05762 -12.6215,134.85102 -32.9074,40.2508 -73.4808,37.612 -100.6994,23.8721 z m 53.2672,-16.1444 c 14.5004,-3.9633 23.6574,-19.6623 28.7847,-32.7489 10.4763,-31.9175 15.9206,-68.74624 -4.7202,-103.49821 -6.9347,-12.35741 -20.13579,-24.98779 -33.6734,-24.21896 -13.14559,0.74657 -27.66652,5.15751 -43.07465,30.93365 -18.07952,31.18041 -11.74707,69.11782 -2.23518,93.66322 7.12489,15.3291 18.49103,45.0334 54.91873,35.8692 z"
       id="path1"
       sodipodi:nodetypes="sssssssssssssssssssssssssssssssssssssssssssssssssssscsssssssssssssssssssssssssssssssssssssssssssssssssssssssccsssssssscssssssssssssssssssscssssssssssssssssssssssssssssscsssscssssssssssssssssssssssssssssssscsssssssssssssssssssssssssssssssssssssssssssssssssssssssssssscsscssssssssssssssssssssssssssscsssssssssssssssssssssssssssssssssssssssssssssssssssssssssssssssssssssssssssssssssssscssssssccssscsscssssscsssssssssscssssssssssssssssssssssssssssssssssssssssssssssssssscsssssssssssssssssssssssssssssssssssssssssssscsssssssssssssssssssscssssssssssssssssssssssssssssssccccccccccsccc" />
  </g>
</svg>
